<svg id="Capa_1" data-name="Capa 1" xmlns="http://www.w3.org/2000/svg" viewBox="0 0 761.47 860.82"><defs><style>.cls-1{fill:#fff;}.cls-2{fill:#bd9240;}.cls-3{fill:#b84357;}</style></defs><path class="cls-1" d="M773.19,178.6c6,0,11.38.5,16.67-.09,21.75-2.41,37.46,7.89,49.42,24.37,15.21,21,29.56,42.55,44,64,10.64,15.81,20.91,31.89,31.26,47.89a11,11,0,0,1,1.69,7c-9.88-5.2-19.85-10.27-29.64-15.64-30.54-16.77-61.4-33-91.33-50.79-12.79-7.6-23.8-18.3-35.19-28.1-4.15-3.57-6.9-4-11.34-.64C731.35,240,713.66,252.91,696.11,266c-6.81,5.09-11.75,11.57-13.67,20-7.54,33.18-15.09,66.36-22.34,99.6-.49,2.22.6,6,2.3,7.29q44.49,33.09,89.43,65.57c1.26.91,4.37,1.08,5.43.19,22.2-18.73,49.61-27.67,75-40.45,28.16-14.18,56-29,84-43.51a37.5,37.5,0,0,1,4.48-1.38c-2.32,4.16-3.65,7.21-5.56,9.84-14.51,20-29,40-43.77,59.86-11.65,15.66-23.6,31.11-35.55,46.55-1.85,2.4-4.34,4.33-6.61,6.39-8.32,7.56-17.39,12.26-29.39,10.71-8.51-1.1-17.28-.22-27-.22.66,8.57.49,16.36,2,23.83,4.25,21.44-1.4,38.63-20.07,50.79-30.19,19.67-60.38,39.35-90.72,58.78-4.43,2.84-9.71,4.37-16.45,5.47q8.48-17.07,17-34.15c9.46-18.9,19.62-37.49,28.16-56.8,4.22-9.53,4.25-20.91,8.39-30.49,5.9-13.65,13.84-26.41,21-39.69-32.5-23.67-66.39-48.27-100.13-73.08-3.68-2.71-5.88-2.36-9.71-.05q-31.75,19.11-64.1,37.24a10.89,10.89,0,0,1-8.94,0c-18.91-10-37.57-20.55-56.34-30.86-6-3.29-12.06-6.4-18.64-9.89L359.35,484.7c2.87,3.64,5.52,6.85,8,10.19,9.79,13.16,17.48,27.05,20,43.81,4.12,27.67,18.47,51,33.11,74.24,6.48,10.26,11.78,21.26,17.62,31.92l-1.44,1.41a20.07,20.07,0,0,1-4.17-1.06c-36.95-18.58-71.32-41.34-104.26-66.16-14.89-11.21-23.11-26.29-19-46.26,1.69-8.21,1.38-16.84,2.11-27.21-9.9,0-19.83-1-29.47.27-10.13,1.33-19-.48-26.45-6.81-7.67-6.51-15.41-13.35-21.4-21.34-21.2-28.26-41.72-57-62.34-85.71-4.26-5.93-7.84-12.36-12.4-19.61l170.61,88.44c31.07-23.52,61.85-47.65,93.67-70.32,7.72-5.49,7.44-10.43,5.61-17.14-5.94-21.77-11.91-43.54-18.27-65.18-10.9-37-11.08-36.93-42.42-59.1q-16.74-11.84-33-24.37c-3.67-2.83-6.09-3.12-9.54.35-18.35,18.45-40.43,31.21-63.69,42.55-20.71,10.1-40.58,21.92-60.82,33q-19.59,10.69-39.19,21.36l-1.37-1.54c3.7-6.67,6.9-13.69,11.21-19.95,14.54-21.15,29.43-42.07,44.28-63,9-12.67,17.42-25.85,27.46-37.63,10.57-12.41,23.7-21.5,41.29-21.14,8.68.18,17.37,0,27.14,0-.7-5.64-1.38-10.37-1.85-15.13-.7-7.24-2.2-14.58-1.66-21.75a35.56,35.56,0,0,1,15.18-26.95c34.95-24,70.81-46.56,109.59-64.06,1-.44,2.1-.56,4.58.38-5.59,9.34-10.94,18.82-16.84,27.95-5.23,8.11-12,15.33-16.41,23.82-6,11.62-12.16,23.66-15,36.25-4.94,21.69-12.34,41.8-26.58,59.44,14.23,9.94,28.26,19.83,42.43,29.51,1.25.85,3.48.77,5.13.45,25.75-5,51.39-10.58,77.25-14.92,26.54-4.45,53.35-4.74,80.22-2.77,34.79,2.54,68.5,10.74,102.4,18.2,4.17.91,9.91-.58,13.6-3,13-8.49,25.4-17.86,38.45-27.19-2.6-4.12-6-8.4-8.19-13.19-5.27-11.26-11.17-22.42-14.72-34.25-6.8-22.64-19-42.43-30.45-62.66-5-8.8-10.25-17.45-15-26.37-1.89-3.53-2.79-7.6-4.14-11.42L651.79,50c7.4,4,15,7.68,22.16,12q36.1,21.54,72,43.45c4.21,2.56,8.16,5.57,12.32,8.23,16.19,10.39,20.57,25.17,16.93,43.42C773.82,163.89,773.85,171,773.19,178.6ZM622.92,265.09C568.7,250.56,515.33,249.19,462,265a13,13,0,0,0-.26,2.77c6.24,33.58,12.61,67.13,18.64,100.75,1,5.46,3.42,8.52,8.38,10.82,17,7.93,33.86,16.35,50.86,24.36a8.33,8.33,0,0,0,6.39.1q28.41-14.12,56.54-28.79c1.58-.82,2.89-3.29,3.23-5.19,2.21-12.24,4.12-24.53,6.12-36.81C615.57,310.58,619.19,288.16,622.92,265.09Z" transform="translate(-159.26 -50)"/><path class="cls-2" d="M489.73,466.26c11.5,9.52,22.43,18.77,33.58,27.75,16.51,13.3,16.79,13.52,33.62,1.48,13.73-9.83,26.87-20.49,40.51-31,2.9,7.09,6.07,14,8.44,21.16.65,2-.73,4.94-1.8,7.15q-20.37,42.26-40.94,84.41c-.72,1.48-1.37,3-2.2,4.42-7.71,13-7.82,25.13,4,35.36l23.27-42.16,34.71,22.44L543.36,761.58c-4.6-9-9.48-17.89-13.79-27.05q-29.12-61.92-57.94-124c-6.58-14.16-6.38-14.21,6.73-22.25,3.41-2.09,6.6-4.52,9.93-6.75,3.11-2.08,6.27-4.09,10.23-6.67,7.55,14.22,15,28.22,21.59,40.66L532,601.8l2,2.63c-2.36-4.42-4.95-8.73-7-13.27-14.82-32-29.49-64.08-44.36-96.07-2.38-5.13-4.05-9.3.69-14.53C486.41,477.12,487.38,471.74,489.73,466.26Z" transform="translate(-159.26 -50)"/><path class="cls-1" d="M192.9,635.11c1.41-5,1.95-9.05,3.6-12.52,15.89-33.31,35.46-64.16,61.1-90.93,6.37-6.65,14.31-8.36,22.62-5.42,7.65,2.71,13,9.35,12.57,17.14s-2.17,17.07-6.79,23C277,578,266.15,588.21,255.14,598c-9.83,8.69-20.86,16-31.44,23.87C215,628.3,205.56,633.34,192.9,635.11Z" transform="translate(-159.26 -50)"/><path class="cls-1" d="M892.27,637.47c-10.24-5.4-21.08-9.93-30.61-16.38-16.73-11.33-32.91-23.51-48.8-36A84.52,84.52,0,0,1,796,567.21c-7-10.08-8.19-21.55-2.09-32.6,6.22-11.26,19.83-13.48,28.32-3.9,12.59,14.21,24.43,29.16,35.71,44.45,9.9,13.41,18.85,27.55,27.7,41.7,3.61,5.77,5.83,12.41,8.69,18.66Z" transform="translate(-159.26 -50)"/><path class="cls-1" d="M895.36,69.56c-6.13,10.32-10.59,19.73-16.75,27.83-14.55,19.11-29.75,37.72-45.05,56.24-4.68,5.67-10.72,9.91-18.7,10.2S800.37,162,796,155.05c-4.69-7.39-5.12-15-.61-22.66a80.45,80.45,0,0,1,29-29.31c18.91-10.91,38.46-20.73,57.8-30.87,2.47-1.29,5.34-1.85,8.06-2.61C891.1,69.37,892,69.56,895.36,69.56Z" transform="translate(-159.26 -50)"/><path class="cls-1" d="M194.92,68.58c13.66,6.61,27.73,12.52,40.87,20a355,355,0,0,1,36.89,24.82c5.9,4.45,10.89,10.45,15.29,16.47,6.81,9.3,6.24,17.12-2.63,27.35-6.69,7.71-17.46,9.13-26.17,1.87a196.92,196.92,0,0,1-26.81-27.87C220.85,117,210.23,102,199.71,86.91c-3.23-4.63-4.87-10.38-7.25-15.62Z" transform="translate(-159.26 -50)"/><path d="M622.92,265.09c-3.73,23.07-7.35,45.49-11,67.91-2,12.28-3.91,24.57-6.12,36.81-.34,1.9-1.65,4.37-3.23,5.19q-28.12,14.69-56.54,28.79a8.33,8.33,0,0,1-6.39-.1c-17-8-33.82-16.43-50.86-24.36-5-2.3-7.4-5.36-8.38-10.82-6-33.62-12.4-67.17-18.64-100.75A13,13,0,0,1,462,265C515.33,249.19,568.7,250.56,622.92,265.09ZM543.05,276.5c-29.73-1-46.16,16.33-50,39.53-1.72,10.25-.45,21-.32,31.55.08,6.45,3.47,11,9.08,14,9.12,4.82,18.31,9.53,27.41,14.4,7.9,4.23,15.55,5.16,23.93.69,8.67-4.63,17.88-8.25,26.82-12.37,6.58-3,11.36-7,11-15.42-.21-4.32,1.9-8.7,2.19-13.1.56-8.35,2.34-17.16.45-25C588.25,288.89,568.94,276.5,543.05,276.5Z" transform="translate(-159.26 -50)"/><path class="cls-3" d="M543.05,276.5c25.89,0,45.2,12.39,50.47,34.24,1.89,7.86.11,16.67-.45,25-.29,4.4-2.4,8.78-2.19,13.1.4,8.39-4.38,12.39-11,15.42C571,368.4,561.77,372,553.1,376.65c-8.38,4.47-16,3.54-23.93-.69-9.1-4.87-18.29-9.58-27.41-14.4-5.61-3-9-7.53-9.08-14-.13-10.53-1.4-21.3.32-31.55C496.89,292.83,513.32,275.51,543.05,276.5Z" transform="translate(-159.26 -50)"/><path class="cls-3" d="M544.48,338.78c6.6,0,11.36-4.68,11.16-10.86-.22-7-5-12.33-11-12.35-6.86,0-11.12,4.77-11.12,12.49C533.56,334.91,537.56,338.83,544.48,338.78Z" transform="translate(-159.26 -50)"/><path class="cls-1" d="M544.48,338.78c-6.92.05-10.92-3.87-10.93-10.72,0-7.72,4.26-12.52,11.12-12.49,6,0,10.75,5.36,11,12.35C555.84,334.1,551.08,338.74,544.48,338.78Z" transform="translate(-159.26 -50)"/><path class="cls-1" d="M296.17,814.48c0,1.12-.82,2.47-2.44,4q-5.44,5-12.37,18.09a157.72,157.72,0,0,0-9,20.25,176.74,176.74,0,0,0-9.57,44.82q-.46,6-4,7-2.72.84-17.53.84-8.91,0-10.59-.19-8-.84-8-4.5,0-13.5,8.72-34.12a296.89,296.89,0,0,1,16.22-31.88q8.71-15,8.71-14.81c0-.62-1.31-.94-3.93-.94q-6.94,0-20.82.71t-20.81.7a2.07,2.07,0,0,1-2.34-2.34,42.62,42.62,0,0,1,.94-7.6c.68-3.81,1.09-6.34,1.21-7.59q.38-4.22.38-14.06,0-2.45,4.22-2.44,3.93,0,10.22.65c5.75.63,9.18,1,10.31,1q16.13,1.22,55.31,1.21,4.22,0,4.6,4.41Q296.17,804.45,296.17,814.48Z" transform="translate(-159.26 -50)"/><path class="cls-1" d="M401.39,855.08a54.85,54.85,0,0,1-13.84,37.35q-12.23,14.15-34.35,14.87-4.24.15-23.36.15-3.6,0-10.81-.22t-10.8-.22c-1.42,0-2.12-.56-2.12-1.69q0-8.05.62-24.2t.62-24.21q0-8.42-.62-25.23t-.62-25.16c0-1,.7-1.64,2.12-1.83q5.2-.59,17.06-.59,22.56,0,29.23.66,17.36,1.75,27.17,8.79,9.22,6.6,14.58,18.46A55,55,0,0,1,401.39,855.08Zm-28.05,0q0-12.37-7.4-20.21-7.47-8.13-19.77-8.13-11.28,0-11.28,3,0,4.32-.15,13t-.14,13q0,4.25.14,12.78t.15,12.85q0,3.15,11.72,3.15,12.67,0,19.92-8.42Q373.34,868.12,373.34,855.08Z" transform="translate(-159.26 -50)"/><path class="cls-1" d="M500.05,906.28c0,.34-.49.58-1.46.73a127.58,127.58,0,0,1-14,.44,125.19,125.19,0,0,1-13-.44,7.44,7.44,0,0,1-1.83-.37,3.21,3.21,0,0,1-1-1.46q-1.09-2.86-3.22-8.5-2.85-7.32-8.94-21.6c-.87-1.91-2.9-3-6.07-3.15q2.19.14-7.55.14c-.73,0-1.1,1.25-1.1,3.74q0,5,.92,14.87t.91,14.86c0,.84-.22,1.32-.65,1.47l-2.06.15q-4.32.29-13.47.29c-7,0-11.18-.15-12.6-.44s-2.12-1-2.12-2.27q0-8.06.77-24.32t.76-24.39q0-31-1.39-48.34l-.07-1c-.05-.83.72-1.39,2.31-1.69s9-.58,22.37-.88q13.54-.29,21.61-.29,16.69,0,27.24,7.54,11.94,8.5,11.94,24.54,0,10.7-3.07,17.07t-11.36,12.37c-1.12.79-1.68,1.52-1.68,2.2q0-.07,8.94,18.39T500.05,906.28Zm-30.76-65.7q0-8.94-5.86-12.38-4.55-2.64-14.21-2.64c-4.64,0-7.1.71-7.4,2.13q-.44,2.49-.44,14.35c0,1.13,0,2.79.08,5s.07,3.84.07,4.91c0,.25.78.49,2.34.73a64.23,64.23,0,0,0,9.38.66Q469.29,853.32,469.29,840.58Z" transform="translate(-159.26 -50)"/><path class="cls-1" d="M610.06,855.74q0,22.85-14.57,38.3-14.88,15.68-37.65,15.68T520.27,893.9q-14.65-15.45-14.65-38.16t14.65-38.31q14.94-15.88,37.57-15.89t37.5,15.89Q610.05,833.11,610.06,855.74Zm-27.76-.15a27.53,27.53,0,0,0-6.66-18.67,22.45,22.45,0,0,0-17.8-8.06q-10.33,0-17.51,8.35a27.51,27.51,0,0,0-7,18.53q0,11.21,6.51,18.68,6.89,7.83,18,7.83,10.32,0,17.58-8.27A27.15,27.15,0,0,0,582.3,855.59Z" transform="translate(-159.26 -50)"/><path class="cls-1" d="M719,806.52q0,8.36-.69,25.09t-.7,25.15V905c0,1.32-.71,2-2.12,2q-1.77,0-5.31.15c-2.37.09-4.14.14-5.31.14s-3.18-.1-5.72-.29-4.44-.29-5.71-.29c-.88,0-1.93-.81-3.15-2.42q-5.26-7.11-23.73-31.5-5.06-6.81-15.38-20.06a3,3,0,0,0-1.1-.88,2,2,0,0,0-.59,1.61q0,8.49.48,25.49t.48,25.49c0,1.71-.66,2.56-2,2.56H623.1c-1.42,0-2.13-.76-2.13-2.27q0-7.92.77-23.88t.77-24q0-8.42-.69-25.19t-.7-25.13c0-1.07,1-1.61,2.86-1.61q4.24,0,10.47-.58c1-.1,2.9-.42,5.79-1a34.4,34.4,0,0,1,5.78-.65c.59,0,1.49.83,2.71,2.49l27.32,37.42q3.66,5.06,11.06,14.8c1.22,1.51,2.27,2.27,3.15,2.27q.94,0,1-5.72,0-7.68-.84-23.14t-.84-23.22c0-1.8.51-2.71,1.54-2.71q4.39,0,13.25-.36t13.26-.37C718.51,804.25,719,805,719,806.52Z" transform="translate(-159.26 -50)"/><path class="cls-1" d="M807.59,884.23a94.8,94.8,0,0,1-1.24,11.57c-.88,6.11-1.66,9.74-2.34,10.92a2.75,2.75,0,0,1-2.42,1.39,19.39,19.39,0,0,1-2.2-.22q-5.34-.74-31.2-.73-5.64,0-16.77-.08t-16.7-.07c-1.61,0-2.42-.71-2.42-2.13q0-8.19.92-24.64t.91-24.65q0-8.34-.88-31.13-.21-5.85-.8-17.5l-.07-1q-.15-1.68,1.83-1.68,5.41,0,16.29.29t16.3.3q5.34,0,16.11-.3t16.12-.29c2.53,0,4,1,4.39,2.86.24,1.12.62,4.53,1.14,10.21s.76,9.15.76,10.37c0,1-.48,1.54-1.46,1.54-.29,0-.81,0-1.54-.08q-19.49-1.6-35-1.61c-2.59,0-4.17.61-4.76,1.83a23.17,23.17,0,0,0-.37,5.64q0,5,1.47,6.59,1.25,1.39,4.76,1.4c.49,0,1.44,0,2.86-.11s2.58-.11,3.51-.11q9.22,0,18.68-.52l4-.36a34.78,34.78,0,0,1,4-.3c1.17,0,1.76.57,1.76,1.69q0-1.54-1.32,11.2-.58,5.87-.58,11.72,0,1.47-2.13,1.47l-6.59-.73q-4.17-.45-19-.44h-7.77c-2,0-3.17.48-3.51,1.46,0,.25-.08,1.76-.08,4.54,0,3.71.25,6.11.74,7.18.83,1.86,4,2.95,9.37,3.3H783q3.87,0,11.53-.7t11.46-.7C807.06,881.59,807.59,882.47,807.59,884.23Z" transform="translate(-159.26 -50)"/><path class="cls-1" d="M867.29,873.32q0,14.86-12.53,25.49-11,9.38-26.73,11.93a8,8,0,0,1-.95.08q-1.7,0-7.47-10.29T813.82,888c0-.54.37-.88,1.1-1q10.62-2.41,14.06-4.1,7.62-3.81,7.62-11.28,0-4.75-5-10.62-8.64-10-9.38-11.06a29.81,29.81,0,0,1-5-16.85q0-13.39,12.38-22.26,10.11-7.32,24.83-9.52c.53,0,1-.08,1.24-.08.73,0,1.32.59,1.76,1.76q1.9,5.36,8.86,19.34a1.68,1.68,0,0,1,.22.73c0,.83-.44,1.25-1.32,1.25a15.64,15.64,0,0,1-2-.22,14.35,14.35,0,0,0-2.13-.22,17.38,17.38,0,0,0-9.23,2.41q-4.76,2.79-4.76,7.77c0,3,1.76,6.64,5.28,11q9.3,11.73,9.74,12.31Q867.28,865.34,867.29,873.32Z" transform="translate(-159.26 -50)"/></svg>